<svg xmlns="http://www.w3.org/2000/svg" xmlns:xlink="http://www.w3.org/1999/xlink" viewBox="0 0 187.05 182.32"><defs><style>.cls-1{fill:#efce0f;}.cls-2{fill:url(#linear-gradient);}.cls-3{fill:url(#linear-gradient-2);}.cls-4{fill:url(#linear-gradient-3);}.cls-5{fill:url(#linear-gradient-4);}.cls-6{fill:url(#linear-gradient-5);}.cls-7{fill:url(#linear-gradient-6);}.cls-10,.cls-11,.cls-12,.cls-13,.cls-14,.cls-15,.cls-16,.cls-17,.cls-18,.cls-8,.cls-9{fill:#fff;}.cls-8{opacity:0;}.cls-9{opacity:0.1;}.cls-10{opacity:0.2;}.cls-11{opacity:0.3;}.cls-12{opacity:0.4;}.cls-13{opacity:0.5;}.cls-14{opacity:0.6;}.cls-15{opacity:0.7;}.cls-16{opacity:0.8;}.cls-17{opacity:0.9;}.cls-19{fill:url(#linear-gradient-7);}.cls-20{fill:url(#linear-gradient-8);}.cls-21{fill:url(#linear-gradient-9);}.cls-22{fill:url(#linear-gradient-10);}.cls-23{fill:url(#linear-gradient-11);}.cls-24{fill:url(#linear-gradient-12);}.cls-25{fill:url(#linear-gradient-13);}.cls-26{fill:url(#linear-gradient-14);}.cls-27{fill:url(#linear-gradient-15);}.cls-28{fill:url(#linear-gradient-16);}.cls-29{fill:url(#linear-gradient-17);}</style><linearGradient id="linear-gradient" x1="153.42" y1="27.88" x2="180.82" y2="27.88" gradientUnits="userSpaceOnUse"><stop offset="0.15" stop-color="#ddb112" stop-opacity="0.95"/><stop offset="0.45" stop-color="#dda812" stop-opacity="0.95"/><stop offset="0.94" stop-color="#dd8f12" stop-opacity="0.95"/><stop offset="1" stop-color="#dd8b12" stop-opacity="0.95"/></linearGradient><linearGradient id="linear-gradient-2" x1="142.94" y1="36.21" x2="159.28" y2="36.21" gradientUnits="userSpaceOnUse"><stop offset="0.15" stop-color="#dd8b12" stop-opacity="0.95"/><stop offset="1" stop-color="#dd8b12" stop-opacity="0.95"/></linearGradient><linearGradient id="linear-gradient-3" x1="114.48" y1="-234.08" x2="215.28" y2="-278.95" gradientTransform="translate(-187.4 185.7) rotate(29.48)" gradientUnits="userSpaceOnUse"><stop offset="0" stop-color="#f2e630" stop-opacity="0.95"/><stop offset="0.03" stop-color="#f2e52b" stop-opacity="0.96"/><stop offset="0.16" stop-color="#f0e01b" stop-opacity="0.96"/><stop offset="0.3" stop-color="#efde12" stop-opacity="0.96"/><stop offset="0.52" stop-color="#efdd0f" stop-opacity="0.96"/><stop offset="0.73" stop-color="#efde11" stop-opacity="0.96"/><stop offset="0.8" stop-color="#f0e018" stop-opacity="0.96"/><stop offset="0.85" stop-color="#f1e325" stop-opacity="0.96"/><stop offset="0.9" stop-color="#f2e836" stop-opacity="0.96"/><stop offset="0.93" stop-color="#f4ee4e" stop-opacity="0.95"/><stop offset="0.97" stop-color="#f6f66a" stop-opacity="0.95"/><stop offset="0.99" stop-color="#f9ff8b" stop-opacity="0.95"/></linearGradient><linearGradient id="linear-gradient-4" x1="91.88" y1="-261.27" x2="213.31" y2="-261.27" gradientTransform="translate(-187.4 185.7) rotate(29.48)" gradientUnits="userSpaceOnUse"><stop offset="0" stop-color="#f6f466" stop-opacity="0.95"/><stop offset="0.15" stop-color="#f6f465" stop-opacity="0.94"/><stop offset="0.29" stop-color="#f6f361" stop-opacity="0.9"/><stop offset="0.41" stop-color="#f5f15a" stop-opacity="0.82"/><stop offset="0.53" stop-color="#f4ee51" stop-opacity="0.72"/><stop offset="0.65" stop-color="#f3eb45" stop-opacity="0.59"/><stop offset="0.77" stop-color="#f2e736" stop-opacity="0.43"/><stop offset="0.88" stop-color="#f1e225" stop-opacity="0.24"/><stop offset="0.99" stop-color="#efdc11" stop-opacity="0.02"/><stop offset="1" stop-color="#efdc0f" stop-opacity="0"/></linearGradient><linearGradient id="linear-gradient-5" x1="91.89" y1="-250.96" x2="223.76" y2="-250.96" gradientTransform="translate(-187.4 185.7) rotate(29.48)" gradientUnits="userSpaceOnUse"><stop offset="0.15" stop-color="#dd8b12" stop-opacity="0.95"/><stop offset="0.25" stop-color="#df9412" stop-opacity="0.95"/><stop offset="0.42" stop-color="#e5ac11" stop-opacity="0.96"/><stop offset="0.52" stop-color="#e9be10" stop-opacity="0.96"/><stop offset="1" stop-color="#dd8b12" stop-opacity="0.95"/></linearGradient><linearGradient id="linear-gradient-6" x1="157.82" y1="-238.19" x2="157.82" y2="-202.81" gradientTransform="translate(-187.4 185.7) rotate(29.48)" gradientUnits="userSpaceOnUse"><stop offset="0.15" stop-color="#dd8b12" stop-opacity="0"/><stop offset="0.24" stop-color="#de8d12" stop-opacity="0.02"/><stop offset="0.35" stop-color="#e09213" stop-opacity="0.08"/><stop offset="0.46" stop-color="#e39a15" stop-opacity="0.17"/><stop offset="0.58" stop-color="#e8a518" stop-opacity="0.3"/><stop offset="0.71" stop-color="#edb31b" stop-opacity="0.47"/><stop offset="0.84" stop-color="#f5c51f" stop-opacity="0.67"/><stop offset="0.97" stop-color="#fdd923" stop-opacity="0.91"/><stop offset="1" stop-color="#ffde24" stop-opacity="0.96"/></linearGradient><linearGradient id="linear-gradient-7" x1="90" y1="-240.98" x2="98.41" y2="-240.98" gradientTransform="translate(-187.4 185.7) rotate(29.48)" gradientUnits="userSpaceOnUse"><stop offset="0" stop-color="#c28355"/><stop offset="1" stop-color="#803a07"/></linearGradient><linearGradient id="linear-gradient-8" x1="92.76" y1="-33.94" x2="210.87" y2="-86.53" gradientTransform="matrix(0.97, 0.25, -0.25, 0.97, -72.25, 100.3)" xlink:href="#linear-gradient-3"/><linearGradient id="linear-gradient-9" x1="66.34" y1="-65.78" x2="208.54" y2="-65.78" gradientTransform="matrix(0.97, 0.25, -0.25, 0.97, -72.25, 100.3)" xlink:href="#linear-gradient-4"/><linearGradient id="linear-gradient-10" x1="66.35" y1="-53.69" x2="220.74" y2="-53.69" gradientTransform="matrix(0.97, 0.25, -0.25, 0.97, -72.25, 100.3)" xlink:href="#linear-gradient-5"/><linearGradient id="linear-gradient-11" x1="143.54" y1="-38.71" x2="143.54" y2="2.81" gradientTransform="matrix(0.97, 0.25, -0.25, 0.97, -72.25, 100.3)" xlink:href="#linear-gradient-6"/><linearGradient id="linear-gradient-12" x1="64.14" y1="-41.89" x2="73.99" y2="-41.89" gradientTransform="matrix(0.97, 0.25, -0.25, 0.97, -72.25, 100.3)" xlink:href="#linear-gradient-7"/><linearGradient id="linear-gradient-13" x1="42.75" y1="139.89" x2="175.99" y2="80.57" gradientTransform="matrix(1, 0, 0, 1, 0, 0)" xlink:href="#linear-gradient-3"/><linearGradient id="linear-gradient-14" x1="13.03" y1="117.63" x2="187.05" y2="117.63" gradientTransform="matrix(1, 0, 0, 1, 0, 0)" xlink:href="#linear-gradient-5"/><linearGradient id="linear-gradient-15" x1="100.04" y1="134.54" x2="100.04" y2="181.39" gradientTransform="matrix(1, 0, 0, 1, 0, 0)" xlink:href="#linear-gradient-6"/><linearGradient id="linear-gradient-16" x1="13.03" y1="104.01" x2="173.35" y2="104.01" gradientTransform="matrix(1, 0, 0, 1, 0, 0)" xlink:href="#linear-gradient-4"/><linearGradient id="linear-gradient-17" x1="10.54" y1="131.08" x2="21.65" y2="131.08" gradientTransform="matrix(1, 0, 0, 1, 0, 0)" xlink:href="#linear-gradient-7"/></defs><title>Bananas</title><g id="Objects"><path class="cls-1" d="M180.81,6.93a35.54,35.54,0,0,1-.92,3.62c-.21,1.09-.2,2.2-.45,3.29-.32,1.44-.87,3.87-2.27,4.58s-3-.41-4.46-.12c-3.11.6-4.52,3.41-5.65,6.1-.63,1.56-.39,3.3-.39,4.94a29.55,29.55,0,0,0,.6,7.43,67.29,67.29,0,0,0,2.11,6.49c.64,1.75,1.73,3.24,2.34,5,.46,1.36.86,2.76,1.31,4.13,0,.05,0,.1.05.15-1.85-.94-3.63-2-5.44-3-3.36-1.75-6.79-3-10.89-1.71.22-.31.42-.61.65-.91l.09-.82c-1.07-.87-1.57-2.36-2.43-3.41a10.58,10.58,0,0,0-3.49-2.5c-1.81-.92-8.73-1.31-8.48-3.95a4.64,4.64,0,0,1,1.39-2.12,20.83,20.83,0,0,1-.71-4.16,23.63,23.63,0,0,0-1-5c-1.17-3.23-3.92-3.65-6.44-5.32,4.1-.69,8.13,1.46,12.27-.53a5.66,5.66,0,0,0,2.64-2.86c1.09-3.28-2.37-4.69-2.83-7.46s2.37-5.16,4.2-6.86c4.22-3.9,10.76-.95,15.63.28a47.84,47.84,0,0,0,5.53,1c1.25.16,2.49.31,3.74.51C179.55,4.06,181,4.58,180.81,6.93Z"/><path class="cls-1" d="M136.53,20.13a2.26,2.26,0,0,1,.26-.16l-.74-.32Z"/><path class="cls-2" d="M180.81,6.93a35.54,35.54,0,0,1-.92,3.62c-.21,1.09-.2,2.2-.45,3.29-.32,1.44-.87,3.87-2.27,4.58s-3-.41-4.46-.12c-3.11.6-4.52,3.41-5.65,6.1-.63,1.56-.39,3.3-.39,4.94a29.55,29.55,0,0,0,.6,7.43,67.29,67.29,0,0,0,2.11,6.49c.64,1.75,1.73,3.24,2.34,5,.46,1.36.86,2.76,1.31,4.13,0,.05,0,.1.05.15-1.85-.94-3.63-2-5.44-3-3.41-5.84-4.14-14-5.48-20.31-.77-3.6.15-8.55-1.66-11.72-1.51-2.66-5.88-3-7.08-5.51a89.82,89.82,0,0,0,14.1.85c3.53,0,4.07-.38,4.69-3.86.33-1.84,1.17-3.89,1.56-5.81,1.25.16,2.49.31,3.74.51C179.55,4.06,181,4.58,180.81,6.93Z"/><path class="cls-3" d="M159,49.79a1.63,1.63,0,0,0-1.24-.37c-.31-2.08.52-4,.28-6.05-.2-1.7-.19-3.65-.41-5.44a100.85,100.85,0,0,1-.56-12.09A95,95,0,0,0,158,36c.23,1.93.72,3.82,1,5.76a31.53,31.53,0,0,1,.29,3.62c0,.95-.45,1.95-.3,2.85v1.56ZM143.26,37c.49-.7,3.46-.26,4.18.2.61-.93.38-2.51.62-3.56s.63-2.38,1-3.53a26,26,0,0,0,1.27-7.44c-.29,1-1.28,2-1.74,2.95-.6,1.21-1.05,2.5-1.64,3.68s-1.44,2.41-2.1,3.52-1.09,2.48-1.91,3.22Z"/><path class="cls-1" d="M145.8,29.37c-2.26-3.78-4.07-8.13-9-9.24-6.85,3.29-13.38,7.53-18.15,13.55C107.78,47.31,94.93,55.63,77,53,64.08,50.3,51.93,43.87,41.15,36.37,35.31,32.3,30,27.72,24.48,23.3a30.75,30.75,0,0,0-5.34-3.58L19,19.63c-2.48-1.23-6.56-3.08-8.75-.43A6.89,6.89,0,0,0,9.17,26c1,3.19,3.42,6.37,5.15,8.77,1.34,1.86,2.77,3.67,4.27,5.45,2.09,2.49,4.32,4.88,6.59,7.16l.73.71.06.06a85.58,85.58,0,0,0,26.78,17.2q2.46,1,5,1.86l.52.17a122.43,122.43,0,0,0,12.45,3.27c32.26,6.93,58-15.38,75.13-40.92l0-.11Z"/><path class="cls-4" d="M82.52,70.47A55,55,0,0,1,71,69.22,119.77,119.77,0,0,1,58.68,66l-.52-.18c-1.67-.56-3.31-1.17-4.87-1.82A84.5,84.5,0,0,1,27,47.1L26.87,47l-.68-.68c-2.4-2.4-4.59-4.78-6.51-7.07-1.52-1.79-2.93-3.6-4.21-5.37L15,33.25c-1.63-2.23-3.65-5-4.47-7.71a5.38,5.38,0,0,1,.79-5.44,2.35,2.35,0,0,1,2-.84,13.23,13.23,0,0,1,5.05,1.64l.16.08a30,30,0,0,1,5.09,3.42l4.55,3.68c3.9,3.19,7.93,6.47,12.2,9.45C52.93,46.29,65.16,52,76.71,54.42a45.94,45.94,0,0,0,6.67.5c13.75,0,25.3-6.47,36.33-20.36,4-5,9.59-9.22,17.21-12.93,3.37,1,5,3.86,6.77,6.91.18.32.36.65.55,1-12.74,18.83-33.69,41-61.71,41Z"/><path class="cls-5" d="M145.82,29.69C128.71,55.23,103,77.54,70.69,70.61a90.77,90.77,0,0,1-12.45-3.27l-.52-.17A88.71,88.71,0,0,1,26,48.11l-.06-.06a80.06,80.06,0,0,1-7.32-7.87A76.77,76.77,0,0,1,10,27.11c.09-1.56.25-3.14.47-4.73C21.89,46.2,45.58,62.94,72.19,67.94c31.33,6.73,56.54-14.12,73.63-38.72,0,.12,0,.24,0,.36Z"/><path class="cls-6" d="M145.82,29.69c-17.11,25.54-42.88,47.85-75.13,40.92C44.08,65.61,20.39,48.87,9,25,3.6,63.1,37.78,90.43,73.2,90.14c10.66-.09,23.37-1.63,33.4-5.42,25.9-8.86,33.28-23.81,33.28-23.81C151.6,44.38,146.38,31,145.82,29.69Z"/><path class="cls-7" d="M145.82,29.69c-17.11,25.54-42.88,47.85-75.13,40.92C44.08,65.61,20.39,48.87,9,25,3.6,63.1,37.78,90.43,73.2,90.14c10.66-.09,23.37-1.63,33.4-5.42,25.9-8.86,33.28-23.81,33.28-23.81C151.6,44.38,146.38,31,145.82,29.69Z"/><path class="cls-8" d="M38.44,38.08c0,.1-.17.16-.38.22a2.73,2.73,0,0,1-.87.09,5.79,5.79,0,0,1-1.28-.17,8.65,8.65,0,0,1-1.57-.48c-.56-.22-1.17-.48-1.78-.79s-1.22-.72-1.85-1.13C29.46,35,28.17,34,26.89,33c-.65-.49-1.26-1-1.85-1.41s-1.14-.89-1.67-1.29c-.26-.21-.53-.37-.78-.55a5.33,5.33,0,0,0-.75-.49c-.25-.15-.48-.29-.72-.42s-.46-.22-.68-.34A11.06,11.06,0,0,0,19.21,28l-.54-.23-.47-.16c-.58-.25-1-.49-1-.77s.26-.57.92-.9a5.19,5.19,0,0,1,.57-.23c.21-.05.44-.1.69-.14a6.75,6.75,0,0,1,1.73-.11,8.94,8.94,0,0,1,1,.08l1.07.21a16.65,16.65,0,0,1,2.27.69,13.68,13.68,0,0,1,2.28,1.11A22.38,22.38,0,0,1,29.92,29a45.88,45.88,0,0,1,3.71,3.11c.53.49,1,1,1.47,1.41l1.2,1.31c.36.42.68.78,1,1.13s.5.69.7.94a2.41,2.41,0,0,1,.41.74A.67.67,0,0,1,38.44,38.08Z"/><path class="cls-9" d="M37.42,37.61c-.12.23-.54.35-1.18.29a11.43,11.43,0,0,1-1.13-.2c-.41-.13-.87-.29-1.38-.49a14.68,14.68,0,0,1-1.57-.75c-.53-.3-1.08-.65-1.64-1-1.12-.75-2.28-1.64-3.45-2.53l-1.68-1.3c-.55-.38-1.05-.81-1.52-1.17s-.94-.71-1.38-1-.86-.53-1.25-.79-.76-.4-1.08-.6-.63-.29-.88-.45c-.49-.3-.8-.55-.81-.81s.31-.54.93-.72a4.27,4.27,0,0,1,1.15-.22,10.14,10.14,0,0,1,1.53,0,13.45,13.45,0,0,1,1.81.36,15.16,15.16,0,0,1,2,.7,11.49,11.49,0,0,1,2,1c.65.4,1.31.84,1.95,1.32a39.31,39.31,0,0,1,3.34,2.81c.48.44.93.88,1.34,1.29s.75.83,1.09,1.2a17.5,17.5,0,0,1,1.49,1.89C37.4,37,37.55,37.37,37.42,37.61Z"/><path class="cls-10" d="M36.43,37.1c-.13.23-.5.3-1.09.24a8.9,8.9,0,0,1-2.19-.68,17.46,17.46,0,0,1-2.82-1.61c-1-.66-2-1.45-3.08-2.25l-1.5-1.17c-.48-.37-.95-.72-1.37-1.07s-.84-.69-1.23-1-.75-.59-1.1-.79-.66-.44-.94-.63a5.27,5.27,0,0,1-.74-.49c-.41-.34-.66-.55-.63-.8s.34-.48.89-.56a6.77,6.77,0,0,1,1-.1,12.58,12.58,0,0,1,1.33.15,11.84,11.84,0,0,1,1.56.39,17.55,17.55,0,0,1,1.71.66,18.67,18.67,0,0,1,1.74.95c.55.37,1.16.76,1.71,1.18a35.26,35.26,0,0,1,3,2.52,26.15,26.15,0,0,1,2.18,2.23C36,35.68,36.69,36.65,36.43,37.1Z"/><path class="cls-11" d="M35.46,36.55c-.25.39-1.36.24-2.87-.45a30.47,30.47,0,0,1-5.15-3.41c-.91-.7-1.76-1.38-2.55-2s-1.43-1.19-2-1.64-1.08-.79-1.41-1.14-.53-.54-.48-.76.35-.38.84-.43a6.67,6.67,0,0,1,2,.21,12.88,12.88,0,0,1,2.79,1,22.1,22.1,0,0,1,3,1.9A31.25,31.25,0,0,1,34.14,34a10.25,10.25,0,0,1,1.14,1.56C35.51,36,35.59,36.35,35.46,36.55Z"/><path class="cls-12" d="M34.5,36c-.12.18-.41.22-.84.15a6.12,6.12,0,0,1-1.61-.58,29.53,29.53,0,0,1-4.43-2.94l-2.21-1.75c-.66-.55-1.24-1-1.73-1.49a11.11,11.11,0,0,1-1.17-1.08c-.27-.28-.41-.52-.34-.7s.32-.29.75-.32a7.49,7.49,0,0,1,1.72.27,13.3,13.3,0,0,1,2.32,1,19.43,19.43,0,0,1,2.53,1.65,26.13,26.13,0,0,1,3.92,3.63,7.53,7.53,0,0,1,1,1.36C34.57,35.51,34.62,35.79,34.5,36Z"/><path class="cls-13" d="M33.57,35.35c-.22.29-1,.13-2.05-.4a25,25,0,0,1-3.72-2.47c-.67-.54-1.3-1-1.85-1.5s-1.05-.91-1.46-1.28c-.8-.78-1.31-1.3-1.17-1.62s.92-.31,2.06.09a10.58,10.58,0,0,1,1.9.86,18.46,18.46,0,0,1,2.09,1.39,21.18,21.18,0,0,1,3.3,3.06C33.42,34.37,33.79,35.05,33.57,35.35Z"/><path class="cls-14" d="M32.65,34.71c-.18.23-.8.09-1.65-.34a19.94,19.94,0,0,1-3-2c-.55-.43-1.06-.84-1.51-1.23s-.86-.73-1.18-1.07a7.38,7.38,0,0,1-.73-.84c-.16-.23-.22-.42-.15-.54s.25-.16.54-.14a3.85,3.85,0,0,1,1.12.29,10.7,10.7,0,0,1,1.5.73,15.6,15.6,0,0,1,1.68,1.14,17,17,0,0,1,2.67,2.48C32.54,33.92,32.83,34.47,32.65,34.71Z"/><path class="cls-15" d="M31.74,34.06c-.28.36-1.88-.48-3.57-1.8a19.57,19.57,0,0,1-2.05-1.8c-.5-.49-.75-.9-.64-1.09s.59-.11,1.27.17A11.07,11.07,0,0,1,29.15,31C30.88,32.32,32,33.71,31.74,34.06Z"/><path class="cls-16" d="M30.84,33.41c-.2.24-1.31-.34-2.48-1.25s-2-1.8-1.85-2,1.33.24,2.52,1.17S31,33.16,30.84,33.41Z"/><path class="cls-17" d="M29.94,32.75c-.11.14-.73-.19-1.4-.7s-1.12-1-1-1.17.74.16,1.41.68S30,32.62,29.94,32.75Z"/><path class="cls-18" d="M29,32.1s-.16,0-.31-.16-.25-.23-.23-.25.16,0,.3.15S29.06,32.07,29,32.1Z"/><path class="cls-19" d="M17.49,23a9.16,9.16,0,0,1-4.95,2.54c-1.12.13-2.24.29-3.37.42a6.89,6.89,0,0,1,1.05-6.76c2.19-2.65,6.27-.8,8.75.43l.17.09-.38.86A6.93,6.93,0,0,1,17.49,23Z"/><path class="cls-8" d="M10.11,22.6s0-.14,0-.37a3.84,3.84,0,0,1,.31-1c.12-.18.26-.36.41-.56a2.36,2.36,0,0,1,.56-.58,6.78,6.78,0,0,1,.73-.52l.9-.37a8.26,8.26,0,0,1,.95-.17,3.3,3.3,0,0,1,.89,0,2.77,2.77,0,0,1,.78.13l.65.22a1.64,1.64,0,0,1,.49.27l.34.25c.18.13.26.23.25.26s-.16,0-.37,0l-.39-.08a3.15,3.15,0,0,0-.5-.1l-.6-.06a2.21,2.21,0,0,0-.68,0,2.58,2.58,0,0,0-.72.09c-.25.07-.51.11-.76.2l-.7.33c-.22.12-.4.28-.61.39a2.14,2.14,0,0,0-.52.41,5.13,5.13,0,0,1-.46.38c-.14.12-.23.26-.35.36s-.21.2-.3.27S10.15,22.62,10.11,22.6Z"/><path class="cls-9" d="M10.31,22.26q-.08,0,0-.36a2.93,2.93,0,0,1,.11-.38,1.8,1.8,0,0,1,.24-.45c.13-.16.25-.33.38-.5a2.29,2.29,0,0,1,.53-.49,3.19,3.19,0,0,1,.66-.45l.8-.34a6.66,6.66,0,0,1,.85-.16,2.4,2.4,0,0,1,.8,0l.71.07.59.2.47.17.31.22c.17.13.25.22.23.26s-.14,0-.33,0L16.31,20l-.46,0-.54-.06-.62.05A2.16,2.16,0,0,0,14,20c-.23.07-.47.1-.69.19l-.65.3a5.28,5.28,0,0,0-.56.35,2.62,2.62,0,0,0-.5.35l-.4.35a4.1,4.1,0,0,0-.36.29,2,2,0,0,1-.25.25C10.46,22.22,10.35,22.28,10.31,22.26Z"/><path class="cls-10" d="M10.5,21.91c-.05,0-.05-.14,0-.33a2.1,2.1,0,0,1,.39-.7c.1-.14.21-.29.33-.44l.5-.41a2.48,2.48,0,0,1,.6-.39l.71-.3a4,4,0,0,1,.75-.15,2.39,2.39,0,0,1,.7-.05l.63.06a1.34,1.34,0,0,1,.54.12,7.33,7.33,0,0,1,.73.29c.16.09.23.19.21.23s-.12,0-.29,0-.44,0-.74,0a1.61,1.61,0,0,0-.49,0l-.55,0a2.66,2.66,0,0,0-.6.12,2.82,2.82,0,0,0-.61.18l-.59.26a2.17,2.17,0,0,0-.51.31l-.47.28-.37.32c-.22.2-.46.32-.58.45S10.55,22,10.5,21.91Z"/><path class="cls-11" d="M10.69,21.57c-.1-.07.06-.39.4-.88a3.29,3.29,0,0,1,.76-.71A3.88,3.88,0,0,1,13,19.4a6.12,6.12,0,0,1,1.26-.23c.4,0,.75.06,1,.1a3.41,3.41,0,0,1,.65.25c.14.07.22.13.21.17s-.11.06-.27.06-.37,0-.64,0-.58.06-.93.08-.71.15-1.07.3a5.71,5.71,0,0,0-1,.49,6.43,6.43,0,0,0-.77.51C11.09,21.44,10.77,21.63,10.69,21.57Z"/><path class="cls-12" d="M10.94,21.27c-.07-.06.06-.35.37-.76a7.45,7.45,0,0,1,.68-.58,4.42,4.42,0,0,1,1-.48,5.6,5.6,0,0,1,1.08-.22,4,4,0,0,1,.88.05c.51,0,.78.24.77.3s-.31,0-.78.11a5.13,5.13,0,0,0-.8.1,7.37,7.37,0,0,0-.93.27,8.12,8.12,0,0,0-.88.41c-.25.17-.49.3-.69.41C11.28,21.16,11,21.33,10.94,21.27Z"/><path class="cls-13" d="M11.2,21s0-.34.36-.61c.15-.14.35-.31.57-.48s.54-.25.84-.38a3.09,3.09,0,0,1,.9-.19l.39,0,.35,0c.42.05.67.12.66.18s-.26.12-.65.17l-.32,0-.35.1a3.67,3.67,0,0,0-.79.23l-.76.33a5.65,5.65,0,0,1-.59.35C11.45,20.86,11.27,21,11.2,21Z"/><path class="cls-14" d="M11.46,20.67c0-.05.09-.21.34-.45a2.86,2.86,0,0,1,.48-.37c.2-.1.43-.2.68-.3a2.1,2.1,0,0,1,.72-.17l.59-.07c.35.05.55.1.55.16s-.2.1-.52.13l-.54.16a3.06,3.06,0,0,0-.65.21l-.63.26c-.19.08-.34.2-.48.27S11.51,20.72,11.46,20.67Z"/><path class="cls-15" d="M11.78,20.43s.07-.17.27-.34a2.82,2.82,0,0,1,.89-.49,2.76,2.76,0,0,1,1-.2c.26,0,.42,0,.42.05s-.14.09-.38.17a7.37,7.37,0,0,0-.92.3c-.33.16-.67.24-.88.38S11.81,20.47,11.78,20.43Z"/><path class="cls-16" d="M12.1,20.19s.05-.13.19-.23a6.52,6.52,0,0,1,.64-.31,1.79,1.79,0,0,1,.68-.16c.19,0,.3,0,.3,0s-.09.08-.26.13a3.3,3.3,0,0,0-.63.23,5.49,5.49,0,0,1-.64.24C12.22,20.18,12.12,20.22,12.1,20.19Z"/><path class="cls-17" d="M12.43,20a1.27,1.27,0,0,1,.49-.28c.28-.14.53-.15.54-.11a2.86,2.86,0,0,1-.49.23A1.3,1.3,0,0,1,12.43,20Z"/><path class="cls-18" d="M12.8,19.81l.11-.06.11,0-.1.06C12.85,19.8,12.8,19.82,12.8,19.81Z"/><path class="cls-1" d="M157.06,43.62C153.35,40,150,35.68,144,36c-6.74,5.84-12.82,12.66-16.37,20.94-8.06,18.75-20,32.14-41.1,34.76-15.44.91-31.14-2.59-45.63-7.74-7.85-2.79-15.23-6.32-22.85-9.61a35.46,35.46,0,0,0-7.14-2.39l-.22-.05c-3.17-.62-8.36-1.45-10,2.22-1.29,2.87-.65,5.54.88,8,2.08,3.31,5.82,6.14,8.51,8.31,2.09,1.7,4.26,3.3,6.5,4.84,3.13,2.17,6.37,4.19,9.64,6.06.34.2.68.39,1,.58l.09,0a100.22,100.22,0,0,0,35.53,11.15q3.1.39,6.19.55l.65,0a143,143,0,0,0,15.07-.16c38.59-2.16,60.88-35.35,72.39-69.52l-.09-.11Z"/><path class="cls-20" d="M75.3,112.12c-1.9,0-3.75,0-5.5-.13l-.64,0c-2-.12-4.09-.3-6.07-.55a98.6,98.6,0,0,1-34.94-11l-.1-.06c-.34-.18-.67-.37-1-.56-3.45-2-6.65-4-9.53-6-2.27-1.56-4.42-3.17-6.4-4.77l-.73-.58C7.87,86.48,4.73,84,3,81.18c-1.46-2.3-1.7-4.33-.78-6.4C2.55,74,3.33,73,6.16,73a22.34,22.34,0,0,1,4.23.52l.14,0,.07,0a35.12,35.12,0,0,1,6.8,2.29q3.15,1.36,6.27,2.76c5.38,2.39,10.94,4.85,16.68,6.9,14.9,5.29,28.78,8,41.25,8,1.69,0,3.39,0,5-.15h.1c19.5-2.42,33-13.78,42.42-35.75,3-6.86,8-13.39,15.49-20,4.1,0,6.86,2.8,9.77,5.72l.91.92c-6.41,18.77-15,34-25.41,45.36-12.7,13.78-27.92,21.25-45.23,22.22C81.2,112,78.12,112.12,75.3,112.12Z"/><path class="cls-21" d="M157.18,44c-11.51,34.17-33.8,67.36-72.39,69.52a106.85,106.85,0,0,1-15.07.16l-.65,0a103.46,103.46,0,0,1-41.72-11.7l-.09,0a93.77,93.77,0,0,1-10.68-6.64A89.13,89.13,0,0,1,2.86,83.11c-.38-1.79-.68-3.63-.91-5.5,20.2,23.4,52.11,35,83.72,32.4,37.48-2.1,59.58-33.47,71.37-66.57,0,.14,0,.28.05.42Z"/><path class="cls-22" d="M157.18,44c-11.52,34.17-33.8,67.36-72.39,69.52-31.61,2.58-63.52-9-83.72-32.4,5.59,44.69,52.6,65,92.54,53.7,12-3.41,25.92-9.08,36.1-16.47C156.26,100.28,160,81.1,160,81.1,168.21,58.78,158.21,45.28,157.18,44Z"/><path class="cls-23" d="M157.18,44c-11.52,34.17-33.8,67.36-72.39,69.52-31.61,2.58-63.52-9-83.72-32.4,5.59,44.69,52.6,65,92.54,53.7,12-3.41,25.92-9.08,36.1-16.47C156.26,100.28,160,81.1,160,81.1,168.21,58.78,158.21,45.28,157.18,44Z"/><path class="cls-8" d="M38.37,86.7c0,.15-.15.28-.38.44a2.56,2.56,0,0,1-1,.46,6.2,6.2,0,0,1-1.52.3,9.86,9.86,0,0,1-2,0,20.08,20.08,0,0,1-2.29-.28A20.15,20.15,0,0,1,28.76,87c-.84-.27-1.7-.58-2.57-.91s-1.74-.68-2.61-1-1.71-.72-2.5-1c-.39-.15-.78-.33-1.14-.5L18.86,83c-.35-.17-.68-.27-1-.41a7.55,7.55,0,0,0-1-.35L16,82c-.29-.09-.57-.13-.85-.2s-.55-.15-.8-.19l-.73-.11-.67-.14-.58-.08c-.74-.16-1.27-.36-1.42-.71s.08-.83.71-1.47c.17-.15.35-.31.57-.47s.47-.27.74-.41.57-.28.9-.42a10,10,0,0,1,1.05-.32c.38-.09.78-.2,1.2-.26s.84-.09,1.29-.12a10.71,10.71,0,0,1,1.39,0c.46,0,1,0,1.45.06a15.65,15.65,0,0,1,3,.52,26.76,26.76,0,0,1,2.95,1c1,.38,1.89.77,2.74,1.18s1.66.82,2.4,1.22,1.45.79,2.07,1.18l1.71,1.18c.52.37,1,.72,1.39,1,.2.17.4.33.57.5l.48.44a3.13,3.13,0,0,1,.67.79A.9.9,0,0,1,38.37,86.7Z"/><path class="cls-9" d="M37.08,86.5c-.08.35-.53.67-1.29.84a10.15,10.15,0,0,1-1.38.21q-.77,0-1.74-.06a14.67,14.67,0,0,1-2-.31c-.7-.16-1.43-.37-2.19-.61-1.5-.48-3.1-1.11-4.68-1.76l-2.27-1c-.72-.27-1.4-.6-2-.88s-1.25-.54-1.82-.77-1.11-.37-1.61-.57-1-.25-1.39-.4-.78-.19-1.11-.32a3.06,3.06,0,0,1-.81-.37.68.68,0,0,1-.27-1,2.78,2.78,0,0,1,.67-.65,5.31,5.31,0,0,1,1.24-.67,11.26,11.26,0,0,1,1.78-.5,17.68,17.68,0,0,1,2.2-.21,16.44,16.44,0,0,1,2.49.13c.42,0,.89.09,1.31.18l1.32.33c.87.26,1.75.55,2.62.89a39.93,39.93,0,0,1,4.65,2.18c.67.36,1.3.72,1.88,1.08s1.09.74,1.56,1.07a15.75,15.75,0,0,1,2.21,1.82C36.88,85.72,37.16,86.13,37.08,86.5Z"/><path class="cls-10" d="M35.79,86.24c-.09.34-.5.59-1.2.76a10.11,10.11,0,0,1-2.74,0,18.52,18.52,0,0,1-3.73-.87c-1.34-.43-2.75-1-4.17-1.57-.72-.31-1.39-.56-2-.86s-1.27-.52-1.85-.8-1.12-.56-1.63-.75-1-.47-1.45-.6-.86-.34-1.23-.48a7.14,7.14,0,0,1-1-.39c-.57-.3-.92-.5-1-.85s.22-.74.82-1a8.07,8.07,0,0,1,1.14-.49,13.34,13.34,0,0,1,1.57-.3,11.78,11.78,0,0,1,1.92-.09,16.7,16.7,0,0,1,2.17.18,17.83,17.83,0,0,1,2.29.51c.75.24,1.56.49,2.31.8a37.72,37.72,0,0,1,4.15,2c.61.34,1.16.65,1.69,1s1,.61,1.41.94a13,13,0,0,1,2,1.7C35.67,85.47,35.89,85.89,35.79,86.24Z"/><path class="cls-11" d="M34.52,85.93c-.19.61-1.52.87-3.48.62a32.1,32.1,0,0,1-6.9-2.17l-3.45-1.49c-1-.49-2-1-2.73-1.3-.4-.2-.76-.37-1.08-.5a6.47,6.47,0,0,1-.84-.46c-.47-.29-.75-.53-.76-.83s.26-.63.81-.87a7.1,7.1,0,0,1,2.38-.5,14.6,14.6,0,0,1,3.52.2,23.61,23.61,0,0,1,4,1.21,31,31,0,0,1,6.39,3.42,10.57,10.57,0,0,1,1.71,1.51C34.45,85.22,34.62,85.61,34.52,85.93Z"/><path class="cls-12" d="M33.26,85.57c-.1.27-.43.45-.95.53a6.24,6.24,0,0,1-2-.06,27.68,27.68,0,0,1-5.94-1.88l-1.57-.67-1.43-.64c-.91-.43-1.69-.82-2.37-1.21a10.38,10.38,0,0,1-1.62-1c-.39-.27-.61-.54-.59-.8s.28-.49.76-.69a7.58,7.58,0,0,1,2-.32,14.83,14.83,0,0,1,4.63.76,17.73,17.73,0,0,1,1.72.61,26.46,26.46,0,0,1,5.52,3,7.35,7.35,0,0,1,1.47,1.33C33.22,85,33.36,85.3,33.26,85.57Z"/><path class="cls-13" d="M32,85.17c-.18.47-1.14.59-2.51.35a24.08,24.08,0,0,1-5-1.57c-.92-.4-1.77-.76-2.53-1.14s-1.44-.73-2-1a12.93,12.93,0,0,1-1.33-.9c-.31-.26-.48-.51-.44-.74s.27-.4.68-.53a5.16,5.16,0,0,1,1.71-.18,11.68,11.68,0,0,1,2.45.33,21.22,21.22,0,0,1,2.81.91,21.43,21.43,0,0,1,4.64,2.51C31.59,84,32.19,84.7,32,85.17Z"/><path class="cls-14" d="M30.77,84.74c-.15.38-.92.46-2,.27a20.39,20.39,0,0,1-4-1.28c-.74-.32-1.44-.62-2.06-.93s-1.18-.59-1.64-.89a6.79,6.79,0,0,1-1.06-.78c-.24-.24-.36-.46-.31-.64s.24-.32.58-.4A4.09,4.09,0,0,1,21.59,80a10.36,10.36,0,0,1,1.94.33,16.94,16.94,0,0,1,2.26.74,17.77,17.77,0,0,1,3.76,2C30.44,83.78,30.92,84.37,30.77,84.74Z"/><path class="cls-15" d="M29.54,84.3c-.24.58-2.35.18-4.65-.78a20,20,0,0,1-2.84-1.44c-.7-.44-1.1-.85-1-1.14s.65-.39,1.51-.32a11.91,11.91,0,0,1,3.18.86C28.09,82.45,29.77,83.74,29.54,84.3Z"/><path class="cls-16" d="M28.31,83.85c-.17.39-1.62.12-3.23-.55s-2.79-1.45-2.67-1.84,1.61-.25,3.25.44S28.48,83.46,28.31,83.85Z"/><path class="cls-17" d="M27.09,83.39c-.09.22-.91.07-1.81-.3s-1.58-.84-1.5-1.06.9-.11,1.82.28S27.18,83.18,27.09,83.39Z"/><path class="cls-18" d="M25.87,83s-.2,0-.4-.08-.35-.18-.34-.22.2,0,.4.07S25.89,82.9,25.87,83Z"/><path class="cls-24" d="M10.07,76.14a10.75,10.75,0,0,1-4.82,4.41L1.57,82.07C0,79.64-.6,77,.69,74.1c1.65-3.67,6.84-2.84,10-2.22l.22.05c-.05.37-.12.73-.15,1.09A8.26,8.26,0,0,1,10.07,76.14Z"/><path class="cls-8" d="M1.61,78c-.06,0-.08-.16-.12-.44a4.07,4.07,0,0,1,0-1.2,6.09,6.09,0,0,1,.28-.77,2.69,2.69,0,0,1,.45-.85,6.35,6.35,0,0,1,.68-.83l.91-.7a8.81,8.81,0,0,1,1-.49,4.33,4.33,0,0,1,1-.26,3.42,3.42,0,0,1,.94-.08l.81.06a1.77,1.77,0,0,1,.64.18l.46.18c.25.11.37.21.36.25s-.17.09-.43.12l-.46,0a3.19,3.19,0,0,0-.59.06l-.69.13a2.45,2.45,0,0,0-.75.22,3.51,3.51,0,0,0-.78.33c-.25.16-.52.28-.77.46s-.45.4-.68.58-.36.43-.55.62a2.64,2.64,0,0,0-.47.6,6.23,6.23,0,0,1-.41.56c-.13.17-.2.35-.3.5s-.2.28-.29.39S1.66,78,1.61,78Z"/><path class="cls-9" d="M1.72,77.53c-.08,0-.12-.16-.15-.42a3.44,3.44,0,0,1,0-.47,2,2,0,0,1,.13-.59c.07-.21.16-.45.26-.7a3,3,0,0,1,.45-.73A3.82,3.82,0,0,1,3,73.89c.26-.21.53-.42.82-.63a6,6,0,0,1,.92-.45l.45-.18.46-.09c.3-.05.58-.1.84-.13l.73,0,.59.07a4,4,0,0,1,.43.16c.22.11.34.19.33.25s-.15.1-.38.13a2.27,2.27,0,0,1-.41,0l-.53.12-.62.11L6,73.6l-.35.12c-.12.06-.23.14-.35.21a6.48,6.48,0,0,0-.7.42c-.21.19-.42.36-.62.53a4.54,4.54,0,0,0-.52.56A3.12,3.12,0,0,0,3,76c-.12.19-.24.36-.36.52a2.8,2.8,0,0,0-.32.43c-.09.13-.16.25-.24.35S1.79,77.55,1.72,77.53Z"/><path class="cls-10" d="M1.83,77.08c-.08,0-.13-.16-.14-.39a2.27,2.27,0,0,1,.19-.92c.07-.19.14-.4.24-.62s.27-.41.43-.63a2.81,2.81,0,0,1,.57-.63c.22-.19.47-.38.72-.56a3.86,3.86,0,0,1,.81-.41,3.12,3.12,0,0,1,.79-.28l.75-.12a1.8,1.8,0,0,1,.65,0,8,8,0,0,1,.92.13.7.7,0,0,1,.23.11c.06,0,.08.08.08.11s0,.05-.09.08-.14,0-.24.06a7,7,0,0,1-.83.21,2,2,0,0,0-.55.16l-.61.23a3.05,3.05,0,0,0-.62.32,4.67,4.67,0,0,0-.63.39c-.19.17-.38.33-.57.47s-.32.35-.48.5-.3.32-.45.46l-.32.46c-.19.28-.44.49-.54.66S1.9,77.11,1.83,77.08Z"/><path class="cls-11" d="M1.93,76.63c-.14,0-.09-.47.14-1.15a3.83,3.83,0,0,1,.64-1.06,4.68,4.68,0,0,1,1.13-1,7.41,7.41,0,0,1,1.38-.65c.46-.09.87-.15,1.22-.19a3.77,3.77,0,0,1,.81.1c.19,0,.29.09.29.15s-.1.12-.27.18-.43.11-.73.2-.63.25-1,.38-.74.4-1.1.68a6.75,6.75,0,0,0-1,.85,9.59,9.59,0,0,0-.72.79C2.39,76.38,2.07,76.68,1.93,76.63Z"/><path class="cls-12" d="M2.13,76.21c-.12,0-.08-.43.14-1a8.44,8.44,0,0,1,.59-.88,5.2,5.2,0,0,1,1-.86A5.77,5.77,0,0,1,5,72.89a4.56,4.56,0,0,1,1-.21,1.77,1.77,0,0,1,.7,0c.17,0,.26.08.26.13s-.08.11-.23.16a6.15,6.15,0,0,0-.61.25,6,6,0,0,0-.86.38,9.12,9.12,0,0,0-.95.59,9.36,9.36,0,0,0-.86.73c-.23.26-.46.47-.66.66C2.51,76,2.25,76.27,2.13,76.21Z"/><path class="cls-13" d="M2.32,75.79c-.07,0-.1-.4.19-.82a5.65,5.65,0,0,1,.5-.73,6.77,6.77,0,0,1,.84-.7,3.68,3.68,0,0,1,1-.5l.44-.17.41-.06c.5-.06.81,0,.82,0s-.25.24-.68.42l-.34.14-.37.23a4.52,4.52,0,0,0-.81.51l-.75.6c-.2.22-.39.41-.56.57C2.6,75.61,2.44,75.86,2.32,75.79Z"/><path class="cls-14" d="M2.53,75.38c-.07,0,0-.29.22-.64a3.22,3.22,0,0,1,.42-.58c.2-.18.43-.37.68-.56a2.61,2.61,0,0,1,.77-.41c.25-.1.47-.19.66-.25.41,0,.66,0,.68,0s-.19.2-.54.34c-.15.11-.34.23-.55.36a3.24,3.24,0,0,0-.66.43l-.63.49c-.19.15-.33.33-.47.45S2.61,75.43,2.53,75.38Z"/><path class="cls-15" d="M2.81,75c-.05,0,0-.22.18-.49a3.34,3.34,0,0,1,.87-.84l.27-.2.3-.13.51-.2c.29-.1.47-.12.5,0s-.14.16-.38.34l-.43.27-.26.15-.24.2c-.33.29-.69.48-.88.7S2.87,75.05,2.81,75Z"/><path class="cls-16" d="M3.1,74.63s0-.17.14-.34a5.36,5.36,0,0,1,.62-.55,1.94,1.94,0,0,1,.73-.39c.21-.07.34-.09.36,0s-.08.13-.25.24a4,4,0,0,0-.65.46,4.46,4.46,0,0,1-.65.46C3.24,74.59,3.14,74.67,3.1,74.63Z"/><path class="cls-17" d="M3.41,74.29s.17-.25.46-.48.56-.33.59-.29-.22.2-.48.44S3.45,74.32,3.41,74.29Z"/><path class="cls-18" d="M3.77,74l.1-.1L4,73.8a.37.37,0,0,1-.1.11C3.83,74,3.78,74,3.77,74Z"/><path class="cls-1" d="M173.12,52.59c-5.05-2.88-9.94-6.69-16.37-4.72-5.75,8.26-10.51,17.4-12.11,27.44C141,98,131.62,116,109.32,124.74c-16.62,5.29-34.74,5.85-52,4.26-9.35-.86-18.38-2.67-27.62-4.13a40,40,0,0,0-8.46-.63H21c-3.63.21-9.53.74-10.32,5.22-.62,3.49.82,6.23,3.16,8.45,3.18,3,8,5.1,11.58,6.72,2.75,1.27,5.57,2.42,8.44,3.48,4,1.5,8.12,2.79,12.2,3.92.43.13.86.24,1.3.35l.11,0c13.53,3.53,28.06,4,41.9,2.27,2.33-.28,4.63-.66,6.91-1.11l.72-.14a156.92,156.92,0,0,0,16.41-4.38C155,136,170.19,93.48,173.35,52.94l-.13-.09C173.19,52.76,173.15,52.68,173.12,52.59Z"/><path class="cls-25" d="M74,153.79a103.21,103.21,0,0,1-26-3.18l-.1,0-1.27-.34c-4.31-1.2-8.37-2.51-12.06-3.88-2.9-1.07-5.69-2.22-8.31-3.43l-1-.43c-3.31-1.51-7.43-3.39-10.12-5.94-2.22-2.11-3.05-4.26-2.6-6.77.5-2.84,4.62-3.46,8.59-3.68h.24c.44,0,.88,0,1.32,0a42.07,42.07,0,0,1,6.74.64c2.55.41,5.08.84,7.6,1.27,6.54,1.11,13.31,2.25,20.15,2.88,5.68.53,11.23.79,16.47.79a119.91,119.91,0,0,0,36.25-5.13l.11,0c20.64-8.08,32.23-24.25,36.49-50.88,1.32-8.32,5.06-16.87,11.42-26.11a9.7,9.7,0,0,1,2.38-.3c3.47,0,6.58,1.86,9.86,3.82l1.26.75c-1.84,22.29-7,41.34-15.26,56.64-10.08,18.59-24.65,31-43.29,36.88a155.88,155.88,0,0,1-16.22,4.33l-.72.14c-2.28.45-4.56.82-6.77,1.09a124.27,124.27,0,0,1-15.19.95Z"/><path class="cls-26" d="M173.35,53c-3.16,40.53-18.36,83-59.93,96.11C79.61,160.69,41.55,156.94,13,137c18.43,47.26,75.39,56.35,115.91,32.88,12.19-7.07,25.81-17.14,34.9-28,24-27.11,22.86-49.12,22.86-49.12C189.48,66.05,174.84,54.09,173.35,53Z"/><path class="cls-27" d="M173.35,53c-3.16,40.53-18.36,83-59.93,96.11C79.61,160.69,41.55,156.94,13,137c18.43,47.26,75.39,56.35,115.91,32.88,12.19-7.07,25.81-17.14,34.9-28,24-27.11,22.86-49.12,22.86-49.12C189.48,66.05,174.84,54.09,173.35,53Z"/><path class="cls-28" d="M173.35,52.94c-3.16,40.54-18.36,83-59.93,96.12A118.25,118.25,0,0,1,97,153.44l-.72.14a116.43,116.43,0,0,1-48.81-1.16l-.11,0a105.29,105.29,0,0,1-13.5-4.27,99.84,99.84,0,0,1-18.33-9.42c-.9-1.85-1.74-3.77-2.51-5.74C41.55,152.89,79.61,156.64,113.42,145,153.79,132.28,169.3,91.85,173,52.4l.18.45Z"/><path class="cls-8" d="M55.32,132.74a1,1,0,0,1-.28.65,2.52,2.52,0,0,1-.38.45,4.53,4.53,0,0,1-.56.42,6.94,6.94,0,0,1-1.59.84,10.54,10.54,0,0,1-2.16.66,22,22,0,0,1-2.61.4,21.54,21.54,0,0,1-2.9,0c-1,0-2-.14-3.06-.25s-2.09-.25-3.14-.41-2-.32-3-.44c-.46,0-.93-.14-1.36-.23L33,134.59c-.42-.09-.8-.12-1.2-.19a8,8,0,0,0-1.13-.15c-.35,0-.71-.05-1.06-.09s-.64,0-1,0-.64,0-.92,0l-.82,0h-.78a5.33,5.33,0,0,1-.67,0c-.87,0-1.54-.13-1.84-.52s-.21-1,.29-1.93c.13-.22.28-.46.47-.72s.43-.45.69-.69.55-.49.87-.75A11.65,11.65,0,0,1,27,128.9c.39-.21.8-.46,1.24-.65s.91-.36,1.4-.53a12.88,12.88,0,0,1,1.53-.46c.52-.13,1.08-.29,1.63-.37a17.73,17.73,0,0,1,3.43-.32,34.86,34.86,0,0,1,3.53.23c1.17.14,2.29.32,3.33.54s2,.44,3,.68,1.79.48,2.56.76l2.17.88c.67.29,1.26.57,1.8.85a7.78,7.78,0,0,1,.75.44l.65.38.53.37a3.17,3.17,0,0,1,.41.41A1.15,1.15,0,0,1,55.32,132.74Z"/><path class="cls-9" d="M53.86,132.88c0,.46-.39,1-1.18,1.44a9.44,9.44,0,0,1-1.45.69,19.5,19.5,0,0,1-1.94.49,16.07,16.07,0,0,1-2.33.3c-.82,0-1.68,0-2.58,0s-1.83-.13-2.75-.23-1.89-.22-2.84-.36l-2.72-.42c-.85-.1-1.68-.28-2.43-.43s-1.48-.27-2.16-.39-1.29-.13-1.9-.24-1.1-.05-1.6-.12-.92,0-1.32-.1a3.83,3.83,0,0,1-1-.25,1.1,1.1,0,0,1-.58-.44A1,1,0,0,1,25,132a2.75,2.75,0,0,1,.53-1,5.67,5.67,0,0,1,1.15-1.15,12.34,12.34,0,0,1,1.81-1.11,17.52,17.52,0,0,1,2.37-.9,18.35,18.35,0,0,1,2.79-.62c.48-.07,1-.16,1.5-.19h1.55c1,0,2.09.1,3.14.22s2.05.3,3,.49,1.83.4,2.68.63,1.62.45,2.34.69a19.65,19.65,0,0,1,2,.79,16.46,16.46,0,0,1,2.88,1.54,3.88,3.88,0,0,1,.83.73A1.14,1.14,0,0,1,53.86,132.88Z"/><path class="cls-10" d="M52.38,133c0,.46-.39.89-1.1,1.32a10.71,10.71,0,0,1-3,.93,12,12,0,0,1-2,.2c-.72,0-1.5,0-2.29,0-1.58-.07-3.28-.28-5-.52-.87-.14-1.66-.23-2.45-.39s-1.52-.22-2.21-.38-1.37-.32-2-.41-1.21-.27-1.72-.31-1-.17-1.47-.24a9,9,0,0,1-1.18-.21c-.71-.22-1.17-.39-1.34-.79a1.48,1.48,0,0,1,.56-1.51,8.72,8.72,0,0,1,1.1-.91,11.88,11.88,0,0,1,1.64-.83,14.63,14.63,0,0,1,2.09-.69,17.43,17.43,0,0,1,5.11-.56c.9.05,1.85.09,2.77.22a37.68,37.68,0,0,1,5.07,1c.76.21,1.45.41,2.11.64a13.66,13.66,0,0,1,1.79.69,13.48,13.48,0,0,1,2.59,1.43C52,132.05,52.4,132.5,52.38,133Z"/><path class="cls-11" d="M50.91,133c0,.42-.38.79-1,1.12a8.4,8.4,0,0,1-2.64.78,21.91,21.91,0,0,1-3.78.1c-1.39-.07-2.87-.24-4.38-.46s-2.9-.45-4.15-.69l-3.3-.75-.69-.18-.61-.12a7.3,7.3,0,0,1-1.05-.32c-.6-.22-1-.44-1.09-.82s.09-.83.61-1.29a6.66,6.66,0,0,1,1-.68,7,7,0,0,1,.67-.35c.24-.1.5-.2.77-.29a16.14,16.14,0,0,1,3.93-.84,24.34,24.34,0,0,1,4.71.17,33.54,33.54,0,0,1,4.46.88,27.24,27.24,0,0,1,3.46,1.17,11.52,11.52,0,0,1,2.27,1.3A1.66,1.66,0,0,1,50.91,133Z"/><path class="cls-12" d="M49.42,133c0,.37-.35.69-.89,1a6.53,6.53,0,0,1-2.27.6,28.42,28.42,0,0,1-7-.31l-1.89-.3-1.72-.32c-1.1-.23-2.06-.48-2.9-.74a10,10,0,0,1-2-.69c-.5-.21-.82-.48-.88-.8s.15-.69.63-1.08a7.74,7.74,0,0,1,2.15-1,14.16,14.16,0,0,1,3.33-.56,16,16,0,0,1,2,0c.67,0,1.37.09,2.06.18a26.68,26.68,0,0,1,6.84,1.8,7.68,7.68,0,0,1,2,1.13C49.22,132.21,49.46,132.59,49.42,133Z"/><path class="cls-13" d="M48,132.88c-.08.64-1.1,1.09-2.67,1.26a24,24,0,0,1-5.89-.26c-1.11-.17-2.13-.34-3.07-.55a20,20,0,0,1-2.45-.64,10.71,10.71,0,0,1-1.7-.69c-.41-.23-.67-.49-.69-.78s.18-.57.59-.86a5.6,5.6,0,0,1,1.82-.75,11.73,11.73,0,0,1,2.77-.38,21.59,21.59,0,0,1,3.34.19,22.11,22.11,0,0,1,5.76,1.52C47.17,131.57,48,132.25,48,132.88Z"/><path class="cls-14" d="M46.47,132.77c-.07.51-.9.86-2.16,1a20.12,20.12,0,0,1-4.77-.21c-.9-.15-1.74-.29-2.5-.47a18.47,18.47,0,0,1-2-.55,7.05,7.05,0,0,1-1.36-.63,1,1,0,0,1-.53-.69c0-.24.18-.46.53-.67a4.69,4.69,0,0,1,1.48-.55,12.85,12.85,0,0,1,2.22-.23,19.48,19.48,0,0,1,2.68.17,17.76,17.76,0,0,1,4.67,1.24C45.86,131.7,46.54,132.26,46.47,132.77Z"/><path class="cls-15" d="M45,132.64c-.06.39-.69.64-1.65.75a15.73,15.73,0,0,1-3.65-.16,18.81,18.81,0,0,1-3.49-.82c-.88-.31-1.43-.7-1.42-1.08s.6-.68,1.57-.87a12.14,12.14,0,0,1,3.72,0C42.94,130.87,45.12,131.87,45,132.64Z"/><path class="cls-16" d="M43.54,132.49c-.09.54-1.75.7-3.69.42s-3.44-.86-3.41-1.38,1.69-.82,3.68-.54S43.62,132,43.54,132.49Z"/><path class="cls-17" d="M42.07,132.35c0,.3-1,.38-2.07.23s-2-.51-1.91-.79.95-.44,2.06-.27S42.12,132.06,42.07,132.35Z"/><path class="cls-18" d="M40.62,132.21c0,.06-.22.08-.46,0s-.44-.11-.43-.16.21-.08.46-.05S40.62,132.15,40.62,132.21Z"/><path class="cls-29" d="M21.5,129.09a12.22,12.22,0,0,1-4.06,6.15c-1.19.88-2.38,1.8-3.59,2.68-2.34-2.22-3.78-5-3.16-8.45.79-4.48,6.69-5,10.32-5.22h.25c0,.42.08.84.14,1.24A9.35,9.35,0,0,1,21.5,129.09Z"/></g></svg>